<svg width="51" height="50" viewBox="0 0 51 50" fill="none" xmlns="http://www.w3.org/2000/svg">
<path d="M26 30.25C22.55 30.25 22.25 28.6017 22.25 28.3333H18.5C18.5 30.0967 19.7375 33.2208 24.125 33.93V36H27.875V33.93C31.625 33.2783 33.5 30.8058 33.5 28.3333C33.5 26.1867 32.525 22.5833 26 22.5833C22.25 22.5833 22.25 21.3758 22.25 20.6667C22.25 19.9575 23.5625 18.75 26 18.75C28.4375 18.75 28.6062 19.9767 28.625 20.6667H32.375C32.3497 19.3609 31.8902 18.1029 31.0724 17.0997C30.2545 16.0964 29.1268 15.4076 27.875 15.1467V13H24.125V15.0892C20.375 15.7217 18.5 18.1942 18.5 20.6667C18.5 22.8133 19.475 26.4167 26 26.4167C29.75 26.4167 29.75 27.72 29.75 28.3333C29.75 28.9467 28.5875 30.25 26 30.25Z" fill="#696969"/>
<path d="M12.35 5H6.5V8.9H10.4V42.05C10.4 42.5672 10.6054 43.0632 10.9711 43.4289C11.3368 43.7946 11.8328 44 12.35 44H39.65C40.1672 44 40.6632 43.7946 41.0289 43.4289C41.3946 43.0632 41.6 42.5672 41.6 42.05V8.9H45.5V5H12.35ZM37.7 40.1H14.3V8.9H37.7V40.1Z" fill="#696969"/>
</svg>
