<svg width="50" height="50" viewBox="0 0 50 50" fill="none" xmlns="http://www.w3.org/2000/svg">
<path d="M36 45L32.7915 43.4805C31.51 42.8696 30.4272 41.909 29.6679 40.7094C28.9086 39.5099 28.5038 38.1202 28.5 36.7005V27H43.5V36.702C43.4962 38.1217 43.0914 39.5114 42.3321 40.7109C41.5728 41.9105 40.49 42.8711 39.2085 43.482L36 45ZM31.5 30V36.702C31.5027 37.5534 31.7458 38.3867 32.2015 39.1059C32.6572 39.8251 33.3068 40.4009 34.0755 40.767L36 41.679L37.9245 40.7685C38.6934 40.4023 39.3432 39.8263 39.7989 39.1068C40.2546 38.3873 40.4976 37.5537 40.5 36.702V30H31.5Z" fill="#696969"/>
<path d="M25.4997 42H10.5V6.00047H22.4998V15.0004C22.5021 15.7953 22.819 16.5569 23.381 17.119C23.9431 17.6811 24.7048 17.998 25.4997 18.0003H34.4996V22.5003H37.4995V15.0004C37.5048 14.8032 37.4673 14.6073 37.3896 14.426C37.312 14.2448 37.1959 14.0825 37.0495 13.9504L26.5497 3.4505C26.4176 3.30402 26.2554 3.18793 26.0741 3.11024C25.8928 3.03256 25.6968 2.99512 25.4997 3.00051H10.5C9.70504 3.00288 8.94337 3.31971 8.38129 3.8818C7.8192 4.44389 7.50237 5.20556 7.5 6.00047V42C7.50237 42.7949 7.8192 43.5566 8.38129 44.1187C8.94337 44.6808 9.70504 44.9976 10.5 45H25.4997V42ZM25.4997 6.60047L33.8996 15.0004H25.4997V6.60047Z" fill="#696969"/>
</svg>
