<svg width="13" height="15" viewBox="0 0 13 15" fill="none" xmlns="http://www.w3.org/2000/svg">
<g clip-path="url(#clip0_31_39)">
<path d="M11.2656 6.39524C11.2656 10.0702 6.01562 13.5002 6.01562 13.5002C6.01562 13.5002 0.765625 10.0702 0.765625 6.39524C0.765625 5.03071 1.31875 3.72205 2.30331 2.75718C3.28788 1.79231 4.62324 1.25024 6.01562 1.25024C7.40801 1.25024 8.74337 1.79231 9.72794 2.75718C10.7125 3.72205 11.2656 5.03071 11.2656 6.39524V6.39524Z" stroke="#444444" stroke-linecap="round" stroke-linejoin="round"/>
<path d="M6.12528 7.75012C6.83002 7.75012 7.40133 7.19048 7.40133 6.50012C7.40133 5.80977 6.83002 5.25012 6.12528 5.25012C5.42055 5.25012 4.84924 5.80977 4.84924 6.50012C4.84924 7.19048 5.42055 7.75012 6.12528 7.75012Z" fill="#444444"/>
</g>
<defs>
<clipPath id="clip0_31_39">
<rect width="12.25" height="14" fill="white" transform="translate(0 0.5)"/>
</clipPath>
</defs>
</svg>
