<svg width="50" height="49" viewBox="0 0 50 49" fill="none" xmlns="http://www.w3.org/2000/svg">
<path d="M20.3483 37.7357L20.8125 37.2251V34.707L13.2075 18.6523H9.66748L2.0625 34.707V37.3479L2.47598 37.7966C3.61161 39.0262 4.98921 40.0078 6.52226 40.6798C8.05532 41.3517 9.71073 41.6994 11.3846 41.7011H11.4256C13.1063 41.6936 14.7672 41.3373 16.3031 40.6548C17.839 39.9722 19.2165 38.9782 20.3483 37.7357ZM17.6875 35.9969C16.0203 37.6528 13.7647 38.5803 11.4149 38.5763H11.3827C9.07427 38.5878 6.85211 37.6997 5.1875 36.1003V35.4102L11.4375 22.2156L17.6875 35.4102V35.9969ZM41.3325 18.6523H37.7925L30.1875 34.707V37.3479L30.601 37.7966C31.7366 39.0262 33.1142 40.0078 34.6473 40.6798C36.1803 41.3517 37.8357 41.6994 39.5096 41.7011H39.5506C41.2313 41.6936 42.8922 41.3373 44.4281 40.6547C45.964 39.9721 47.3415 38.9781 48.4733 37.7355L48.9375 37.2251V34.707L41.3325 18.6523ZM45.8125 35.9969C44.1453 37.6528 41.8897 38.5803 39.5399 38.5763H39.5077C37.1993 38.5878 34.9771 37.6997 33.3125 36.1003V35.4102L39.5625 22.2156L45.8125 35.4102V35.9969Z" fill="#696969"/>
<path d="M27.0625 19.205C27.9317 18.9437 28.7226 18.4711 29.3644 17.8293C30.0062 17.1875 30.4789 16.3966 30.7401 15.5274H41.125V12.4024H30.7401C30.4038 11.2738 29.7121 10.2839 28.768 9.58012C27.8238 8.87629 26.6776 8.49609 25.5 8.49609C24.3224 8.49609 23.1762 8.87629 22.232 9.58012C21.2879 10.2839 20.5962 11.2738 20.2599 12.4024H9.875V15.5274H20.2599C20.5211 16.3966 20.9938 17.1875 21.6356 17.8293C22.2774 18.4711 23.0683 18.9437 23.9375 19.205V45.2149H13.7812V48.3399H37.2188V45.2149H27.0625V19.205ZM23.1562 13.9649C23.1562 13.5013 23.2937 13.0482 23.5512 12.6628C23.8088 12.2773 24.1748 11.9769 24.6031 11.7995C25.0314 11.6221 25.5026 11.5757 25.9572 11.6662C26.4119 11.7566 26.8295 11.9798 27.1573 12.3076C27.4851 12.6354 27.7083 13.053 27.7987 13.5076C27.8892 13.9623 27.8427 14.4335 27.6653 14.8618C27.4879 15.29 27.1875 15.6561 26.8021 15.9136C26.4167 16.1712 25.9636 16.3086 25.5 16.3086C24.8784 16.3086 24.2823 16.0617 23.8427 15.6222C23.4032 15.1826 23.1562 14.5865 23.1562 13.9649Z" fill="#696969"/>
</svg>
