<svg width="25" height="29" viewBox="0 0 25 29" fill="none" xmlns="http://www.w3.org/2000/svg">
<path d="M22.9167 16.5736H16.6667V13.3613C16.6955 11.9465 17.113 10.5664 17.874 9.37039C18.6394 8.09226 18.916 6.58277 18.6531 5.11842C18.3903 3.65406 17.6056 2.33285 16.4427 1.39677C15.6033 0.71646 14.6003 0.264801 13.5323 0.0861178C12.4642 -0.0925654 11.3678 0.00786628 10.3506 0.377557C9.3334 0.747248 8.43035 1.3735 7.73008 2.19485C7.02981 3.0162 6.55638 4.00443 6.35625 5.06257C6.06918 6.54955 6.34679 8.08954 7.13542 9.38489C7.88316 10.5413 8.29749 11.8794 8.33333 13.2536V16.5736H2.08333C1.53097 16.5741 1.00138 16.7925 0.610804 17.1808C0.220222 17.5691 0.000551538 18.0955 0 18.6446V22.7868C0.000551538 23.3359 0.220222 23.8624 0.610804 24.2507C1.00138 24.6389 1.53097 24.8573 2.08333 24.8579V26.9289C2.08388 27.478 2.30356 28.0045 2.69414 28.3928C3.08472 28.7811 3.6143 28.9995 4.16667 29H20.8333C21.3857 28.9995 21.9153 28.7811 22.3059 28.3928C22.6964 28.0045 22.9161 27.478 22.9167 26.9289V24.8579C23.469 24.8573 23.9986 24.6389 24.3892 24.2507C24.7798 23.8624 24.9994 23.3359 25 22.7868V18.6446C24.9994 18.0955 24.7798 17.5691 24.3892 17.1808C23.9986 16.7925 23.469 16.5741 22.9167 16.5736ZM8.40625 5.43536C8.51782 4.84045 8.75915 4.27706 9.11329 3.78484C9.46742 3.29262 9.92574 2.88352 10.456 2.58631C10.9863 2.2891 11.5756 2.11102 12.1826 2.06458C12.7895 2.01813 13.3993 2.10447 13.9691 2.3175C14.5389 2.53053 15.0548 2.86509 15.4805 3.29764C15.9063 3.73019 16.2315 4.25022 16.4333 4.82116C16.6352 5.39209 16.7087 6.00005 16.6488 6.60227C16.5888 7.20449 16.3969 7.78635 16.0865 8.3069C15.3119 9.5615 14.8224 10.9692 14.6521 12.4314H10.3542C10.1902 10.9708 9.70049 9.56493 8.92083 8.31622C8.39664 7.45231 8.2133 6.42586 8.40625 5.43536ZM14.5833 14.5025V16.5736H10.4167V14.5025H14.5833ZM20.8333 26.9289H4.16667V24.8579H20.8333V26.9289ZM2.08333 22.7868V18.6446H22.9167V22.7868H2.08333Z" fill="#444444"/>
</svg>
