<svg width="22" height="29" viewBox="0 0 22 29" fill="none" xmlns="http://www.w3.org/2000/svg">
<path fill-rule="evenodd" clip-rule="evenodd" d="M10.9993 1.44999C5.73393 1.44999 1.46593 5.66948 1.46593 10.875C1.46593 14.7928 3.88447 18.1532 7.326 19.5749H7.33333V19.5778C8.49514 20.0562 9.74147 20.3016 11 20.2999C12.2586 20.3014 13.5049 20.0557 14.6667 19.5771V19.5749H14.6725C18.1141 18.1532 20.5326 14.7928 20.5326 10.875C20.5326 5.66948 16.2646 1.44999 10.9993 1.44999ZM16.1333 20.4957C19.6218 18.6709 22 15.0473 22 10.875C22 4.86908 17.0749 0 11 0C4.92507 0 0 4.86908 0 10.875C0 15.048 2.3782 18.673 5.8674 20.4957V28.2749C5.86738 28.4061 5.9034 28.5349 5.97163 28.6475C6.03985 28.7601 6.13771 28.8523 6.25477 28.9142C6.37184 28.9762 6.5037 29.0055 6.63631 28.9991C6.76892 28.9928 6.89729 28.9509 7.00773 28.8781L11 26.2463L14.993 28.8781C15.1034 28.9509 15.2318 28.9928 15.3644 28.9991C15.497 29.0055 15.6289 28.9762 15.746 28.9142C15.863 28.8523 15.9609 28.7601 16.0291 28.6475C16.0973 28.5349 16.1334 28.4061 16.1333 28.2749V20.4957ZM14.6667 21.1308C13.4889 21.5418 12.2489 21.7512 11 21.7499C9.71447 21.7499 8.481 21.5324 7.33407 21.1315V26.9206L10.5937 24.7717C10.7142 24.6922 10.8559 24.6498 11.0007 24.6498C11.1456 24.6498 11.2872 24.6922 11.4077 24.7717L14.6667 26.9206V21.1308ZM11 5.79998C10.3259 5.79998 9.65836 5.93125 9.03556 6.18629C8.41275 6.44133 7.84686 6.81515 7.37019 7.28641C6.89351 7.75766 6.51539 8.31712 6.25742 8.93285C5.99944 9.54857 5.86667 10.2085 5.86667 10.875C5.86667 11.5414 5.99944 12.2013 6.25742 12.8171C6.51539 13.4328 6.89351 13.9923 7.37019 14.4635C7.84686 14.9348 8.41275 15.3086 9.03556 15.5636C9.65836 15.8187 10.3259 15.9499 11 15.9499C12.3614 15.9499 13.6671 15.4153 14.6298 14.4635C15.5925 13.5118 16.1333 12.2209 16.1333 10.875C16.1333 9.52899 15.5925 8.23815 14.6298 7.28641C13.6671 6.33466 12.3614 5.79998 11 5.79998ZM4.4 10.875C4.4 9.14443 5.09536 7.48477 6.3331 6.2611C7.57084 5.03743 9.24957 4.34998 11 4.34998C12.7504 4.34998 14.4292 5.03743 15.6669 6.2611C16.9046 7.48477 17.6 9.14443 17.6 10.875C17.6 12.6055 16.9046 14.2651 15.6669 15.4888C14.4292 16.7125 12.7504 17.3999 11 17.3999C9.24957 17.3999 7.57084 16.7125 6.3331 15.4888C5.09536 14.2651 4.4 12.6055 4.4 10.875Z" fill="#444444"/>
</svg>
