<svg width="21" height="15" viewBox="0 0 21 15" fill="none" xmlns="http://www.w3.org/2000/svg">
<path d="M7.76562 0.859375H1.90625C1.59545 0.859375 1.29738 0.98284 1.07761 1.20261C0.85784 1.42238 0.734375 1.72045 0.734375 2.03125V8.28125C0.734375 8.59205 0.85784 8.89012 1.07761 9.10989C1.29738 9.32966 1.59545 9.45312 1.90625 9.45312H8.15625V10.625C8.15625 11.5574 7.78585 12.4516 7.12655 13.1109C6.46724 13.7702 5.57303 14.1406 4.64062 14.1406C4.53702 14.1406 4.43767 14.1818 4.36441 14.255C4.29115 14.3283 4.25 14.4276 4.25 14.5312C4.25 14.6349 4.29115 14.7342 4.36441 14.8075C4.43767 14.8807 4.53702 14.9219 4.64062 14.9219C5.78023 14.9219 6.87315 14.4692 7.67897 13.6634C8.4848 12.8575 8.9375 11.7646 8.9375 10.625V2.03125C8.9375 1.72045 8.81404 1.42238 8.59427 1.20261C8.3745 0.98284 8.07643 0.859375 7.76562 0.859375ZM8.15625 8.67188H1.90625C1.80265 8.67188 1.70329 8.63072 1.63004 8.55746C1.55678 8.48421 1.51562 8.38485 1.51562 8.28125V2.03125C1.51562 1.92765 1.55678 1.82829 1.63004 1.75504C1.70329 1.68178 1.80265 1.64062 1.90625 1.64062H7.76562C7.86923 1.64062 7.96858 1.68178 8.04184 1.75504C8.1151 1.82829 8.15625 1.92765 8.15625 2.03125V8.67188ZM19.0938 0.859375H13.2344C12.9236 0.859375 12.6255 0.98284 12.4057 1.20261C12.186 1.42238 12.0625 1.72045 12.0625 2.03125V8.28125C12.0625 8.59205 12.186 8.89012 12.4057 9.10989C12.6255 9.32966 12.9236 9.45312 13.2344 9.45312H19.4844V10.625C19.4844 11.5574 19.114 12.4516 18.4547 13.1109C17.7954 13.7702 16.9012 14.1406 15.9688 14.1406C15.8651 14.1406 15.7658 14.1818 15.6925 14.255C15.6193 14.3283 15.5781 14.4276 15.5781 14.5312C15.5781 14.6349 15.6193 14.7342 15.6925 14.8075C15.7658 14.8807 15.8651 14.9219 15.9688 14.9219C17.1084 14.9219 18.2013 14.4692 19.0071 13.6634C19.8129 12.8575 20.2656 11.7646 20.2656 10.625V2.03125C20.2656 1.72045 20.1422 1.42238 19.9224 1.20261C19.7026 0.98284 19.4046 0.859375 19.0938 0.859375ZM19.4844 8.67188H13.2344C13.1308 8.67188 13.0314 8.63072 12.9582 8.55746C12.8849 8.48421 12.8438 8.38485 12.8438 8.28125V2.03125C12.8438 1.92765 12.8849 1.82829 12.9582 1.75504C13.0314 1.68178 13.1308 1.64062 13.2344 1.64062H19.0938C19.1973 1.64062 19.2967 1.68178 19.37 1.75504C19.4432 1.82829 19.4844 1.92765 19.4844 2.03125V8.67188Z" fill="#696969"/>
</svg>
