<svg width="25" height="29" viewBox="0 0 25 29" fill="none" xmlns="http://www.w3.org/2000/svg">
<g clip-path="url(#clip0_29_168)">
<path d="M10.3333 15.0032L7.5275 12.2508L6 13.7492L10.3333 18L19 9.49841L17.4725 8L10.3333 15.0032Z" fill="#444444"/>
<path d="M12.5 29L6.06667 25.5894C4.23264 24.6193 2.69893 23.1709 1.63013 21.3996C0.561333 19.6284 -0.00220111 17.6013 6.46101e-06 15.5357V2.07143C0.000557999 1.52222 0.220229 0.995662 0.61081 0.607313C1.00139 0.218964 1.53097 0.000548387 2.08334 0H22.9167C23.469 0.000548387 23.9986 0.218964 24.3892 0.607313C24.7798 0.995662 24.9994 1.52222 25 2.07143V15.5357C25.0022 17.6013 24.4387 19.6284 23.3699 21.3996C22.3011 23.1709 20.7674 24.6193 18.9333 25.5894L12.5 29ZM2.08334 2.07143V15.5357C2.08161 17.2258 2.54282 18.8844 3.41747 20.3336C4.29211 21.7828 5.54717 22.9678 7.04792 23.7614L12.5 26.652L17.9521 23.7624C19.453 22.9687 20.7081 21.7836 21.5828 20.3342C22.4575 18.8848 22.9186 17.226 22.9167 15.5357V2.07143H2.08334Z" fill="#444444"/>
</g>
<defs>
<clipPath id="clip0_29_168">
<rect width="25" height="29" fill="white"/>
</clipPath>
</defs>
</svg>
