<svg width="22" height="29" viewBox="0 0 22 29" fill="none" xmlns="http://www.w3.org/2000/svg">
<path d="M1.375 29H20.625C21.3831 29 22 28.3901 22 27.6406V8.60938C22 8.59397 21.9927 8.58128 21.9917 8.56678C21.9899 8.54594 21.9844 8.52781 21.9798 8.50787C21.9654 8.44492 21.9373 8.38584 21.8973 8.33478C21.8909 8.32662 21.8918 8.31666 21.8854 8.3085L14.5521 0.15225C14.5493 0.149531 14.5457 0.149531 14.5429 0.146812C14.487 0.0890032 14.4164 0.0470697 14.3385 0.025375C14.3211 0.0199375 14.3055 0.018125 14.2872 0.0154063C14.2606 0.010875 14.2358 0 14.2083 0H1.375C0.616917 0 0 0.609906 0 1.35938V27.6406C0 28.3901 0.616917 29 1.375 29ZM14.6667 1.64484L20.5214 8.15625H15.125C14.9233 8.15625 14.6667 7.77563 14.6667 7.47656V1.64484ZM0.916667 1.35938C0.916667 1.2392 0.964955 1.12394 1.05091 1.03897C1.13686 0.95399 1.25344 0.90625 1.375 0.90625H13.75V7.47656C13.75 8.20972 14.3504 9.0625 15.125 9.0625H21.0833V27.6406C21.0833 27.7608 21.035 27.8761 20.9491 27.961C20.8631 28.046 20.7466 28.0938 20.625 28.0938H1.375C1.11833 28.0938 0.916667 27.8944 0.916667 27.6406V1.35938Z" fill="#444444"/>
<path d="M5.04171 12.6875H16.9584C17.0799 12.6875 17.1965 12.6398 17.2825 12.5548C17.3684 12.4698 17.4167 12.3546 17.4167 12.2344C17.4167 12.1142 17.3684 11.9989 17.2825 11.914C17.1965 11.829 17.0799 11.7812 16.9584 11.7812H5.04171C4.92015 11.7812 4.80357 11.829 4.71762 11.914C4.63166 11.9989 4.58337 12.1142 4.58337 12.2344C4.58337 12.3546 4.63166 12.4698 4.71762 12.5548C4.80357 12.6398 4.92015 12.6875 5.04171 12.6875ZM5.04171 16.3125H16.9584C17.0799 16.3125 17.1965 16.2648 17.2825 16.1798C17.3684 16.0948 17.4167 15.9796 17.4167 15.8594C17.4167 15.7392 17.3684 15.6239 17.2825 15.539C17.1965 15.454 17.0799 15.4062 16.9584 15.4062H5.04171C4.92015 15.4062 4.80357 15.454 4.71762 15.539C4.63166 15.6239 4.58337 15.7392 4.58337 15.8594C4.58337 15.9796 4.63166 16.0948 4.71762 16.1798C4.80357 16.2648 4.92015 16.3125 5.04171 16.3125ZM5.04171 9.0625H10.5417C10.6633 9.0625 10.7798 9.01476 10.8658 8.92978C10.9518 8.84481 11 8.72955 11 8.60938C11 8.4892 10.9518 8.37394 10.8658 8.28897C10.7798 8.20399 10.6633 8.15625 10.5417 8.15625H5.04171C4.92015 8.15625 4.80357 8.20399 4.71762 8.28897C4.63166 8.37394 4.58337 8.4892 4.58337 8.60938C4.58337 8.72955 4.63166 8.84481 4.71762 8.92978C4.80357 9.01476 4.92015 9.0625 5.04171 9.0625ZM5.04171 19.9375H16.9584C17.0799 19.9375 17.1965 19.8898 17.2825 19.8048C17.3684 19.7198 17.4167 19.6046 17.4167 19.4844C17.4167 19.3642 17.3684 19.2489 17.2825 19.164C17.1965 19.079 17.0799 19.0312 16.9584 19.0312H5.04171C4.92015 19.0312 4.80357 19.079 4.71762 19.164C4.63166 19.2489 4.58337 19.3642 4.58337 19.4844C4.58337 19.6046 4.63166 19.7198 4.71762 19.8048C4.80357 19.8898 4.92015 19.9375 5.04171 19.9375ZM5.04171 23.5625H16.9584C17.0799 23.5625 17.1965 23.5148 17.2825 23.4298C17.3684 23.3448 17.4167 23.2296 17.4167 23.1094C17.4167 22.9892 17.3684 22.8739 17.2825 22.789C17.1965 22.704 17.0799 22.6562 16.9584 22.6562H5.04171C4.92015 22.6562 4.80357 22.704 4.71762 22.789C4.63166 22.8739 4.58337 22.9892 4.58337 23.1094C4.58337 23.2296 4.63166 23.3448 4.71762 23.4298C4.80357 23.5148 4.92015 23.5625 5.04171 23.5625Z" fill="#444444"/>
</svg>
