<svg width="27" height="29" viewBox="0 0 27 29" fill="none" xmlns="http://www.w3.org/2000/svg">
<path fill-rule="evenodd" clip-rule="evenodd" d="M17.3668 15.0386C17.1435 14.4102 16.7297 13.8662 16.1826 13.4814C15.6356 13.0966 14.982 12.89 14.312 12.89V12.0844H12.6923V12.89C11.8331 12.89 11.0091 13.2295 10.4016 13.8338C9.79406 14.4382 9.45276 15.2578 9.45276 16.1125C9.45276 16.9671 9.79406 17.7868 10.4016 18.3911C11.0091 18.9954 11.8331 19.335 12.6923 19.335V22.5574C11.9877 22.5574 11.3875 22.1103 11.164 21.4835C11.1309 21.381 11.0774 21.2861 11.0067 21.2045C10.936 21.1229 10.8496 21.0562 10.7526 21.0084C10.6555 20.9606 10.5499 20.9326 10.4418 20.9261C10.3337 20.9196 10.2254 20.9348 10.1233 20.9707C10.0212 21.0066 9.92733 21.0624 9.84732 21.135C9.76731 21.2076 9.70275 21.2954 9.65745 21.3933C9.61215 21.4911 9.58704 21.597 9.5836 21.7047C9.58016 21.8123 9.59845 21.9196 9.63741 22.0201C9.86081 22.6485 10.2745 23.1925 10.8216 23.5773C11.3687 23.9621 12.0222 24.1687 12.6923 24.1687V24.9743H14.312V24.1687C15.1712 24.1687 15.9951 23.8292 16.6027 23.2248C17.2102 22.6205 17.5515 21.8009 17.5515 20.9462C17.5515 20.0915 17.2102 19.2719 16.6027 18.6676C15.9951 18.0632 15.1712 17.7237 14.312 17.7237V14.5012C14.647 14.5011 14.9737 14.6044 15.2473 14.7967C15.5208 14.989 15.7277 15.261 15.8394 15.5751C15.911 15.7766 16.06 15.9416 16.2538 16.0337C16.3498 16.0794 16.4538 16.1057 16.56 16.1114C16.6662 16.117 16.7725 16.1018 16.8728 16.0665C16.9731 16.0313 17.0655 15.9768 17.1446 15.906C17.2237 15.8353 17.288 15.7498 17.3339 15.6543C17.3797 15.5589 17.4063 15.4554 17.4119 15.3497C17.4176 15.2441 17.4023 15.1383 17.3668 15.0386ZM12.6923 14.5012C12.2627 14.5012 11.8507 14.671 11.5469 14.9731C11.2432 15.2753 11.0725 15.6851 11.0725 16.1125C11.0725 16.5398 11.2432 16.9496 11.5469 17.2518C11.8507 17.554 12.2627 17.7237 12.6923 17.7237V14.5012ZM14.312 22.5574C14.7416 22.5574 15.1536 22.3877 15.4573 22.0855C15.7611 21.7834 15.9318 21.3735 15.9318 20.9462C15.9318 20.5189 15.7611 20.109 15.4573 19.8069C15.1536 19.5047 14.7416 19.335 14.312 19.335V22.5574Z" fill="#444444"/>
<path fill-rule="evenodd" clip-rule="evenodd" d="M4.7174 2.11154C6.70483 1.14398 9.96538 0 13.5337 0C17.0275 0 20.2022 1.09645 22.1791 2.05111L22.2909 2.10509C22.8869 2.39834 23.368 2.67547 23.7065 2.90024L20.7148 7.2506C27.6117 14.2644 32.9391 29 13.5337 29C-5.87171 29 -0.6877 14.5318 6.26912 7.2506L3.29688 2.90024C3.52608 2.7512 3.81682 2.57799 4.16345 2.39431C4.33514 2.30247 4.51979 2.20821 4.7174 2.11234V2.11154ZM18.7922 7.1926L21.187 3.70989C18.9598 3.86941 16.3099 4.38984 13.7588 5.12457C11.9366 5.64822 9.91193 5.56846 8.03707 5.22446C7.56462 5.13733 7.09541 5.03361 6.63032 4.91349L8.18528 7.19099C11.5179 8.37122 15.4588 8.37123 18.7922 7.1926ZM7.24988 8.56377C11.1494 10.0622 15.8362 10.0622 19.7357 8.56216C21.3634 10.269 22.7251 12.2087 23.7754 14.3167C24.8703 16.5386 25.4664 18.7597 25.3692 20.6739C25.2752 22.5212 24.5447 24.0994 22.8764 25.2724C21.1376 26.4945 18.2131 27.3888 13.5329 27.3888C8.84776 27.3888 5.90953 26.5098 4.15454 25.3014C2.47405 24.1429 1.73625 22.5864 1.63178 20.7641C1.52245 18.8709 2.10556 16.6611 3.19646 14.4239C4.23714 12.2906 5.68925 10.237 7.24988 8.56377ZM6.31852 3.15482C6.96642 3.34656 7.64348 3.51332 8.33025 3.6398C10.0715 3.95883 11.8176 4.00556 13.3077 3.57616C15.0443 3.07292 16.8105 2.67714 18.5962 2.39109C17.106 1.94477 15.3632 1.61125 13.5329 1.61125C10.7429 1.61125 8.14074 2.38545 6.31852 3.15482Z" fill="#444444"/>
</svg>
