<svg width="29" height="29" viewBox="0 0 29 29" fill="none" xmlns="http://www.w3.org/2000/svg">
<path d="M16.6196 1.44883C17.5734 0.512719 18.8559 -0.00780829 20.1889 8.85557e-05C21.522 0.0079854 22.7983 0.54367 23.741 1.49102C24.6838 2.43836 25.2171 3.72102 25.2254 5.06094C25.2336 6.40086 24.7161 7.69005 23.7851 8.64904L23.2214 9.21348L23.3996 9.3926C24.1766 10.1738 24.613 11.2331 24.613 12.3377C24.613 13.4422 24.1766 14.5016 23.3996 15.2827L20.4158 18.282C20.2204 18.4717 19.9587 18.5766 19.687 18.5742C19.4153 18.5719 19.1555 18.4624 18.9634 18.2693C18.7713 18.0762 18.6623 17.815 18.66 17.5419C18.6576 17.2689 18.762 17.0058 18.9508 16.8094L21.9346 13.8102C22.3231 13.4196 22.5413 12.8899 22.5413 12.3377C22.5413 11.7854 22.3231 11.2557 21.9346 10.8651L21.7564 10.686L10.0572 22.4475C9.92386 22.5808 9.75696 22.6752 9.57437 22.7204L1.28583 24.8032C1.10585 24.8481 0.917158 24.8437 0.739463 24.7903C0.561769 24.7369 0.401582 24.6366 0.275624 24.4998C0.149665 24.363 0.0625521 24.1947 0.0233778 24.0125C-0.0157965 23.8303 -0.00559606 23.6408 0.0529142 23.4639L2.64308 15.6535C2.6936 15.5006 2.77871 15.3616 2.89174 15.2473L16.6196 1.44883ZM22.318 2.92136C21.7566 2.35793 20.9957 2.04146 20.2023 2.04146C19.409 2.04146 18.6481 2.35793 18.0867 2.92136L4.53079 16.5449L2.61407 22.3226L8.79317 20.7709L22.318 7.17651C22.8792 6.61214 23.1944 5.84687 23.1944 5.04894C23.1944 4.25101 22.8792 3.48573 22.318 2.92136ZM8.21919 29C5.66011 29 3.64392 27.8211 2.30325 26.6943L4.96387 26.0279C5.95394 26.6011 7.07458 26.9074 8.21712 26.9172C9.05841 26.9172 9.92456 26.5756 10.8487 25.9654C11.775 25.3551 12.6681 24.5345 13.5715 23.6847L13.8057 23.4619C14.6034 22.71 15.4302 21.9268 16.2218 21.3874C17.0672 20.8084 18.1903 20.2835 19.3652 20.7396C20.1443 21.0396 20.6499 21.5936 21.0043 22.2726C21.3379 22.9099 21.5679 23.7055 21.7917 24.5741C21.8953 24.9698 22.0673 25.353 22.2683 25.6113C22.3329 25.7023 22.4128 25.7813 22.5045 25.8446C22.5563 25.8758 22.5791 25.8758 22.5853 25.8758C22.8381 25.8758 23.2712 25.705 23.8907 25.2801C24.2741 25.0177 24.6036 24.7553 24.931 24.4908C25.134 24.3283 25.3392 24.1638 25.5567 24.0013C26.1349 23.566 26.6342 23.2744 27.001 23.089C27.1886 22.9934 27.3809 22.9072 27.5771 22.8308L27.6185 22.8141L27.633 22.8099L27.6392 22.8079H27.6413L27.9728 23.793L27.6434 22.8058C27.9026 22.721 28.1846 22.7423 28.4283 22.8651C28.6719 22.9879 28.8577 23.2023 28.9452 23.4618C29.0327 23.7212 29.0149 24.0049 28.8957 24.2514C28.7766 24.4978 28.5656 24.6871 28.3085 24.7782L28.3002 24.7823C28.1769 24.8324 28.0559 24.888 27.9376 24.949C27.6682 25.0823 27.2725 25.3114 26.7979 25.6696C26.6757 25.7592 26.5182 25.8862 26.3359 26.032C25.9608 26.3299 25.4884 26.7068 25.0553 27.0026C24.4129 27.4442 23.5198 27.9607 22.5853 27.9607C21.6818 27.9607 21.0291 27.4087 20.6251 26.8839C20.2315 26.3493 19.9463 25.7421 19.7858 25.0968C19.5579 24.2158 19.3797 23.6389 19.1725 23.2432C18.986 22.8933 18.8202 22.76 18.6213 22.6808C18.4514 22.6183 18.1136 22.6121 17.3884 23.1099C16.7398 23.5514 16.0311 24.22 15.1961 25.0094L14.9889 25.2031C14.0958 26.0466 13.0825 26.9839 11.9863 27.7066C10.8881 28.4314 9.6241 29 8.21919 29Z" fill="#444444"/>
</svg>
