<svg width="22" height="38" viewBox="0 0 22 38" fill="none" xmlns="http://www.w3.org/2000/svg">
<path fill-rule="evenodd" clip-rule="evenodd" d="M0.078972 18.5981C0.120456 18.4474 0.195369 18.254 0.245537 18.1683C0.295705 18.0826 4.62116 14.0195 9.85769 9.13904C17.7667 1.76788 19.4274 0.243143 19.6664 0.132926C19.8961 0.0270556 20.0334 0.00025559 20.3475 -1.48812e-07C21.2859 -0.000818509 21.9977 0.676597 21.9911 1.56417C21.986 2.26209 22.6778 1.56882 12.8485 10.7253C7.98106 15.2595 3.99863 18.9849 3.99863 19.004C3.99863 19.0232 7.99069 22.756 12.8698 27.2992C20.9265 34.8012 21.7523 35.5848 21.8634 35.8338C22.0049 36.1509 22.0317 36.6583 21.923 36.9654C21.8006 37.3115 21.483 37.6433 21.0953 37.8298C20.7886 37.9774 20.6882 38.0003 20.3476 38C20.0337 37.9997 19.8959 37.9729 19.6664 37.8672C19.4272 37.7571 17.7732 36.2385 9.85769 28.8612C4.62116 23.9808 0.296019 19.9181 0.246321 19.833C0.145253 19.6602 -0.00514727 19.1369 0.000136336 18.9765C0.0020196 18.9191 0.0374878 18.7488 0.078972 18.5981Z" fill="#8B8B8B"/>
</svg>
