<svg width="13" height="13" viewBox="0 0 13 13" fill="none" xmlns="http://www.w3.org/2000/svg">
<path d="M0.371697 1.35087L0.393172 1.33745L3.10792 0L6.03805 3.90683L4.68997 5.70438C4.73031 6.38228 5.01779 7.02187 5.49799 7.50206C5.97819 7.98226 6.61778 8.26973 7.29568 8.31006L9.0932 6.96198L13 9.89205L11.6737 12.5841L11.6625 12.6068L11.6491 12.6283C11.5783 12.7423 11.4795 12.8363 11.3621 12.9014C11.2447 12.9665 11.1126 13.0004 10.9784 13H10.2779C8.92817 13 7.59167 12.7342 6.3447 12.2176C5.09773 11.7011 3.9647 10.9441 3.01031 9.98966C2.05592 9.03527 1.29886 7.90224 0.782352 6.65527C0.265842 5.4083 -9.53674e-07 4.0718 2.86102e-06 2.72209V2.02155C-0.000426292 1.88733 0.0335054 1.75524 0.098567 1.63784C0.16363 1.52044 0.257656 1.42165 0.371697 1.35087ZM1.00323 2.72209C1.00323 7.83616 5.16384 11.9968 10.2779 11.9968H10.8447L11.7321 10.1953L9.09302 8.21595L7.6237 9.31789H7.45651C6.45576 9.31677 5.49632 8.91873 4.78869 8.21109C4.08105 7.50346 3.68301 6.54402 3.68189 5.54327V5.37608L4.78383 3.9068L2.80473 1.26785L1.00323 2.15542V2.72209Z" fill="#444444"/>
</svg>
