<svg width="22" height="38" viewBox="0 0 22 38" fill="none" xmlns="http://www.w3.org/2000/svg">
<path fill-rule="evenodd" clip-rule="evenodd" d="M21.921 18.5981C21.8795 18.4474 21.8046 18.254 21.7545 18.1683C21.7043 18.0826 17.3788 14.0195 12.1423 9.13904C4.23326 1.76788 2.57264 0.243143 2.33362 0.132926C2.10391 0.0270556 1.96659 0.00025559 1.65245 -1.48812e-07C0.714111 -0.000818509 0.00234029 0.676597 0.00888055 1.56417C0.0140056 2.26209 -0.677834 1.56882 9.15152 10.7253C14.0189 15.2595 18.0014 18.9849 18.0014 19.004C18.0014 19.0232 14.0093 22.756 9.13018 27.2992C1.0735 34.8012 0.24774 35.5848 0.136574 35.8338C-0.00493208 36.1509 -0.0316636 36.6583 0.0769904 36.9654C0.199402 37.3115 0.517048 37.6433 0.90474 37.8298C1.2114 37.9774 1.31184 38.0003 1.65245 38C1.96633 37.9997 2.10407 37.9729 2.33362 37.8672C2.57284 37.7571 4.22683 36.2385 12.1423 28.8612C17.3788 23.9808 21.704 19.9181 21.7537 19.833C21.8547 19.6602 22.0051 19.1369 21.9999 18.9765C21.998 18.9191 21.9625 18.7488 21.921 18.5981Z" fill="#8B8B8B"/>
</svg>
