<svg width="19" height="18" viewBox="0 0 19 18" fill="none" xmlns="http://www.w3.org/2000/svg">
<path d="M9.40489 0.292705C9.43483 0.200574 9.56517 0.200574 9.59511 0.292705L11.6104 6.49524C11.6238 6.53644 11.6622 6.56434 11.7055 6.56434H18.2273C18.3241 6.56434 18.3644 6.6883 18.286 6.74524L13.0099 10.5786C12.9748 10.6041 12.9601 10.6492 12.9735 10.6904L14.9889 16.893C15.0188 16.9851 14.9133 17.0617 14.835 17.0048L9.55878 13.1714C9.52373 13.1459 9.47627 13.1459 9.44122 13.1714L4.16503 17.0048C4.08666 17.0617 3.98121 16.9851 4.01115 16.893L6.02647 10.6904C6.03986 10.6492 6.02519 10.6041 5.99014 10.5786L0.713952 6.74524C0.635581 6.6883 0.675859 6.56434 0.772731 6.56434H7.29446C7.33779 6.56434 7.37618 6.53644 7.38957 6.49524L9.40489 0.292705Z" fill="currentColor"/>
</svg>
