<?xml version="1.0" encoding="utf-8"?><svg viewBox="0 0 329.94 329.94" xmlns="http://www.w3.org/2000/svg" xmlns:xlink="http://www.w3.org/1999/xlink"><style>:root>svg{display:none}:root>svg:target{display:block}</style><svg viewBox="0 0 21 21" id="arrow-right" xmlns="http://www.w3.org/2000/svg"><g fill="none" fill-rule="evenodd" stroke="currentColor" stroke-linecap="round" stroke-linejoin="round"><path d="m13.5 6.497 4 4.002-4 4.001M4.5 10.5h13"/></g></svg><svg fill="none" viewBox="0 0 51 50" id="bx_money-withdraw" xmlns="http://www.w3.org/2000/svg"><path d="M26 30.25c-3.45 0-3.75-1.648-3.75-1.917H18.5c0 1.764 1.238 4.888 5.625 5.597V36h3.75v-2.07c3.75-.652 5.625-3.124 5.625-5.597 0-2.146-.975-5.75-7.5-5.75-3.75 0-3.75-1.207-3.75-1.916 0-.71 1.313-1.917 3.75-1.917 2.438 0 2.606 1.227 2.625 1.917h3.75a5.826 5.826 0 0 0-1.303-3.567 5.604 5.604 0 0 0-3.197-1.953V13h-3.75v2.09c-3.75.632-5.625 3.104-5.625 5.577 0 2.146.975 5.75 7.5 5.75 3.75 0 3.75 1.303 3.75 1.916 0 .614-1.163 1.917-3.75 1.917Z" fill="#696969"/><path d="M12.35 5H6.5v3.9h3.9v33.15A1.95 1.95 0 0 0 12.35 44h27.3a1.95 1.95 0 0 0 1.95-1.95V8.9h3.9V5H12.35ZM37.7 40.1H14.3V8.9h23.4v31.2Z" fill="#696969"/></svg><svg fill="none" viewBox="0 0 50 50" id="carbon_document-security" xmlns="http://www.w3.org/2000/svg"><path d="m36 45-3.209-1.52A7.533 7.533 0 0 1 28.5 36.7V27h15v9.702a7.533 7.533 0 0 1-4.291 6.78L36 45Zm-4.5-15v6.702a4.518 4.518 0 0 0 2.575 4.065l1.925.912 1.925-.91a4.518 4.518 0 0 0 2.575-4.067V30h-9Z" fill="#696969"/><path d="M25.5 42h-15V6h12v9a3.009 3.009 0 0 0 3 3h9v4.5h3V15a1.365 1.365 0 0 0-.45-1.05l-10.5-10.5A1.364 1.364 0 0 0 25.5 3h-15a3.009 3.009 0 0 0-3 3v36a3.009 3.009 0 0 0 3 3h15v-3Zm0-35.4 8.4 8.4h-8.4V6.6Z" fill="#696969"/></svg><svg fill="none" viewBox="0 0 13 15" id="charm_map-pin" xmlns="http://www.w3.org/2000/svg"><g clip-path="url(#da)"><path d="M11.266 6.395c0 3.675-5.25 7.105-5.25 7.105S.766 10.07.766 6.395c0-1.364.553-2.673 1.537-3.638A5.305 5.305 0 0 1 6.016 1.25c1.392 0 2.727.542 3.712 1.507a5.093 5.093 0 0 1 1.538 3.638v0Z" stroke="#444" stroke-linecap="round" stroke-linejoin="round"/><path d="M6.125 7.75c.705 0 1.276-.56 1.276-1.25S6.83 5.25 6.125 5.25c-.704 0-1.276.56-1.276 1.25s.572 1.25 1.276 1.25Z" fill="#444"/></g><defs><clipPath id="da"><path fill="#fff" transform="translate(0 .5)" d="M0 0h12.25v14H0z"/></clipPath></defs></svg><svg fill="none" viewBox="0 0 50 49" id="cil_balance-scale" xmlns="http://www.w3.org/2000/svg"><path d="m20.348 37.736.465-.51v-2.519l-7.605-16.055h-3.54L2.062 34.707v2.64l.413.45a12.145 12.145 0 0 0 8.909 3.904h.04a12.145 12.145 0 0 0 8.923-3.965Zm-2.66-1.74a8.88 8.88 0 0 1-6.273 2.58h-.032A8.878 8.878 0 0 1 5.188 36.1v-.69l6.25-13.194 6.25 13.194v.587Zm23.645-17.344h-3.54l-7.605 16.055v2.64l.413.45A12.145 12.145 0 0 0 39.51 41.7h.04a12.143 12.143 0 0 0 8.923-3.965l.465-.51v-2.519l-7.605-16.055Zm4.48 17.345a8.88 8.88 0 0 1-6.273 2.58h-.032a8.878 8.878 0 0 1-6.196-2.477v-.69l6.25-13.194 6.25 13.194v.587Z" fill="#696969"/><path d="M27.063 19.205a5.49 5.49 0 0 0 3.677-3.678h10.385v-3.125H30.74a5.468 5.468 0 0 0-10.48 0H9.875v3.125H20.26a5.49 5.49 0 0 0 3.677 3.678v26.01H13.781v3.125H37.22v-3.125H27.062v-26.01Zm-3.907-5.24a2.344 2.344 0 1 1 4.688 0 2.344 2.344 0 0 1-4.688 0Z" fill="#696969"/></svg><svg fill="none" viewBox="0 0 50 50" id="ic_sharp-edit-calendar" xmlns="http://www.w3.org/2000/svg"><path d="M25 45.833H6.25v-37.5h6.25V4.167h4.167v4.166h16.666V4.167H37.5v4.166h6.25V25h-4.167v-4.167H10.417v20.834H25v4.166Zm21.104-10.437 2.938-2.938-4.417-4.416-2.938 2.937 4.417 4.417Zm-1.479 1.479L33.583 47.917h-4.416V43.5l11.041-11.042 4.417 4.417Z" fill="#696969"/></svg><svg fill="none" viewBox="0 0 21 15" id="icon-review" xmlns="http://www.w3.org/2000/svg"><path d="M7.766.86h-5.86A1.172 1.172 0 0 0 .734 2.03v6.25a1.172 1.172 0 0 0 1.172 1.172h6.25v1.172a3.516 3.516 0 0 1-3.515 3.516.39.39 0 0 0 0 .78 4.297 4.297 0 0 0 4.296-4.296V2.031A1.172 1.172 0 0 0 7.766.86Zm.39 7.812h-6.25a.39.39 0 0 1-.39-.39v-6.25a.39.39 0 0 1 .39-.391h5.86a.39.39 0 0 1 .39.39v6.64ZM19.094.859h-5.86a1.172 1.172 0 0 0-1.171 1.172v6.25a1.172 1.172 0 0 0 1.171 1.172h6.25v1.172a3.516 3.516 0 0 1-3.515 3.516.391.391 0 0 0 0 .78 4.297 4.297 0 0 0 4.297-4.296V2.031A1.172 1.172 0 0 0 19.094.86Zm.39 7.813h-6.25a.39.39 0 0 1-.39-.39v-6.25a.39.39 0 0 1 .39-.391h5.86a.39.39 0 0 1 .39.39v6.64Z" fill="#696969"/></svg><svg fill="none" viewBox="0 0 22 29" id="icon-service-1" xmlns="http://www.w3.org/2000/svg"><path fill-rule="evenodd" clip-rule="evenodd" d="M11 1.45c-5.266 0-9.534 4.22-9.534 9.425 0 3.918 2.418 7.278 5.86 8.7h.007v.003A9.597 9.597 0 0 0 11 20.3a9.598 9.598 0 0 0 3.667-.723v-.002h.005c3.442-1.422 5.86-4.782 5.86-8.7 0-5.206-4.267-9.425-9.533-9.425Zm5.133 19.046C19.622 18.67 22 15.047 22 10.875 22 4.869 17.075 0 11 0S0 4.87 0 10.875c0 4.173 2.378 7.798 5.867 9.62v7.78a.719.719 0 0 0 .388.64.74.74 0 0 0 .753-.037L11 26.246l3.993 2.632a.739.739 0 0 0 1.036-.23.718.718 0 0 0 .104-.373v-7.78Zm-1.466.635c-1.178.41-2.418.62-3.667.619-1.286 0-2.519-.218-3.666-.619v5.79l3.26-2.15a.74.74 0 0 1 .814 0l3.259 2.15v-5.79ZM11 5.8c-.674 0-1.342.131-1.964.386a5.137 5.137 0 0 0-1.666 1.1 5.071 5.071 0 0 0-1.113 1.647 5.025 5.025 0 0 0 1.113 5.53 5.136 5.136 0 0 0 1.666 1.1 5.184 5.184 0 0 0 5.594-1.1 5.046 5.046 0 0 0 1.503-3.588c0-1.346-.54-2.637-1.503-3.589A5.163 5.163 0 0 0 11 5.8Zm-6.6 5.075c0-1.73.695-3.39 1.933-4.614A6.639 6.639 0 0 1 11 4.35c1.75 0 3.43.687 4.667 1.911a6.488 6.488 0 0 1 1.933 4.614c0 1.73-.695 3.39-1.933 4.614A6.638 6.638 0 0 1 11 17.399c-1.75 0-3.43-.687-4.667-1.91A6.488 6.488 0 0 1 4.4 10.875Z" fill="#444"/></svg><svg fill="none" viewBox="0 0 27 29" id="icon-service-2" xmlns="http://www.w3.org/2000/svg"><path fill-rule="evenodd" clip-rule="evenodd" d="M17.367 15.039a3.224 3.224 0 0 0-1.184-1.558 3.252 3.252 0 0 0-1.871-.591v-.806h-1.62v.806c-.859 0-1.683.34-2.29.944a3.214 3.214 0 0 0 0 4.557 3.248 3.248 0 0 0 2.29.944v3.222a1.621 1.621 0 0 1-1.528-1.073.803.803 0 0 0-.722-.558.813.813 0 0 0-.785.467.802.802 0 0 0-.02.627 3.225 3.225 0 0 0 1.185 1.557c.547.385 1.2.592 1.87.592v.805h1.62v-.805c.86 0 1.683-.34 2.29-.944a3.214 3.214 0 0 0 0-4.557 3.248 3.248 0 0 0-2.29-.944V14.5a1.626 1.626 0 0 1 1.527 1.074.807.807 0 0 0 1.034.492.81.81 0 0 0 .539-.717.8.8 0 0 0-.045-.311Zm-4.675-.538c-.43 0-.841.17-1.145.472a1.607 1.607 0 0 0 0 2.279c.304.302.716.472 1.145.472V14.5Zm1.62 8.056c.43 0 .842-.17 1.145-.471a1.607 1.607 0 0 0 0-2.28 1.624 1.624 0 0 0-1.145-.471v3.222Z" fill="#444"/><path fill-rule="evenodd" clip-rule="evenodd" d="M4.717 2.112C6.705 1.144 9.965 0 13.534 0c3.493 0 6.668 1.096 8.645 2.051l.112.054c.596.293 1.077.57 1.415.795l-2.991 4.35C27.612 14.265 32.939 29 13.534 29-5.872 29-.688 14.532 6.269 7.25L3.297 2.9c.23-.149.52-.322.866-.506.172-.092.357-.186.554-.282Zm14.075 5.08 2.395-3.482c-2.227.16-4.877.68-7.428 1.415-1.822.523-3.847.443-5.722.1-.472-.088-.942-.191-1.407-.312l1.555 2.278c3.333 1.18 7.274 1.18 10.607.002ZM7.25 8.565c3.9 1.498 8.586 1.498 12.486-.002a23.569 23.569 0 0 1 4.04 5.755c1.094 2.222 1.69 4.443 1.593 6.357-.094 1.847-.824 3.425-2.493 4.598-1.738 1.223-4.663 2.117-9.343 2.117-4.685 0-7.623-.88-9.378-2.088-1.681-1.158-2.419-2.715-2.523-4.537-.11-1.893.474-4.103 1.564-6.34 1.041-2.133 2.493-4.187 4.054-5.86Zm-.931-5.41c.647.193 1.324.36 2.011.486 1.742.319 3.488.366 4.978-.064a44.012 44.012 0 0 1 5.288-1.185c-1.49-.446-3.233-.78-5.063-.78-2.79 0-5.392.774-7.214 1.544Z" fill="#444"/></svg><svg fill="none" viewBox="0 0 25 29" id="icon-service-3" xmlns="http://www.w3.org/2000/svg"><path d="M22.917 16.574h-6.25V13.36a7.726 7.726 0 0 1 1.207-3.99 6.156 6.156 0 0 0 .78-4.253 6.18 6.18 0 0 0-2.211-3.721A6.282 6.282 0 0 0 10.35.377a6.247 6.247 0 0 0-2.62 1.818 6.195 6.195 0 0 0-1.375 2.868 6.09 6.09 0 0 0 .78 4.322 7.484 7.484 0 0 1 1.197 3.869v3.32h-6.25c-.552 0-1.082.218-1.472.607-.39.388-.61.915-.611 1.464v4.142c0 .549.22 1.075.61 1.464.391.388.921.606 1.473.607v2.07c0 .55.22 1.076.611 1.465.39.388.92.607 1.473.607h16.666c.553 0 1.082-.219 1.473-.607.39-.389.61-.915.61-1.464v-2.071c.553 0 1.083-.22 1.473-.607.39-.389.61-.915.611-1.464v-4.142c0-.55-.22-1.076-.61-1.464a2.091 2.091 0 0 0-1.473-.607ZM8.407 5.435a4.13 4.13 0 0 1 .706-1.65 4.185 4.185 0 0 1 6.367-.487 4.137 4.137 0 0 1 1.169 3.304 4.127 4.127 0 0 1-.563 1.705 10.068 10.068 0 0 0-1.434 4.124h-4.298a9.844 9.844 0 0 0-1.433-4.115 4.057 4.057 0 0 1-.515-2.88Zm6.176 9.067v2.072h-4.166v-2.072h4.166Zm6.25 12.427H4.167v-2.071h16.666v2.07Zm-18.75-4.142v-4.142h20.834v4.142H2.083Z" fill="#444"/></svg><svg fill="none" viewBox="0 0 22 29" id="icon-service-4" xmlns="http://www.w3.org/2000/svg"><path d="M1.375 29h19.25c.758 0 1.375-.61 1.375-1.36V8.61c0-.016-.007-.029-.008-.043-.002-.021-.008-.04-.012-.06a.44.44 0 0 0-.083-.172c-.006-.008-.005-.018-.012-.027L14.552.152l-.01-.005a.454.454 0 0 0-.204-.122c-.017-.005-.032-.007-.05-.01C14.26.011 14.235 0 14.207 0H1.375C.617 0 0 .61 0 1.36v26.28C0 28.39.617 29 1.375 29ZM14.667 1.645l5.854 6.511h-5.396c-.202 0-.458-.38-.458-.68V1.646ZM.917 1.359a.45.45 0 0 1 .134-.32.461.461 0 0 1 .324-.133H13.75v6.57c0 .734.6 1.587 1.375 1.587h5.958V27.64a.45.45 0 0 1-.134.32.461.461 0 0 1-.324.133H1.375a.451.451 0 0 1-.458-.453V1.359Z" fill="#444"/><path d="M5.042 12.688h11.916a.461.461 0 0 0 .325-.133.45.45 0 0 0-.325-.774H5.042a.461.461 0 0 0-.324.133.45.45 0 0 0 0 .64.46.46 0 0 0 .324.133Zm0 3.624h11.916a.461.461 0 0 0 .325-.132.45.45 0 0 0-.325-.774H5.042a.461.461 0 0 0-.324.133.45.45 0 0 0 0 .64.46.46 0 0 0 .324.134Zm0-7.25h5.5a.461.461 0 0 0 .324-.132.45.45 0 0 0 0-.641.461.461 0 0 0-.324-.133h-5.5a.461.461 0 0 0-.324.133.45.45 0 0 0 0 .64.461.461 0 0 0 .324.133Zm0 10.876h11.916a.461.461 0 0 0 .325-.133.45.45 0 0 0-.325-.774H5.042a.461.461 0 0 0-.324.133.45.45 0 0 0 0 .64.46.46 0 0 0 .324.134Zm0 3.625h11.916a.461.461 0 0 0 .325-.133.45.45 0 0 0-.325-.774H5.042a.461.461 0 0 0-.324.133.45.45 0 0 0 0 .64.46.46 0 0 0 .324.134Z" fill="#444"/></svg><svg fill="none" viewBox="0 0 25 29" id="icon-service-5" xmlns="http://www.w3.org/2000/svg"><g clip-path="url(#ka)" fill="#444"><path d="m10.333 15.003-2.806-2.752L6 13.749 10.333 18 19 9.498 17.473 8l-7.14 7.003Z"/><path d="m12.5 29-6.433-3.41A11.411 11.411 0 0 1 1.63 21.4 11.325 11.325 0 0 1 0 15.536V2.07C0 1.522.22.996.61.607 1.002.22 1.532.001 2.084 0h20.834c.552 0 1.082.219 1.472.607.39.389.61.915.611 1.464v13.465a11.325 11.325 0 0 1-1.63 5.864 11.41 11.41 0 0 1-4.437 4.19L12.5 29ZM2.083 2.071v13.465a9.266 9.266 0 0 0 1.334 4.798 9.337 9.337 0 0 0 3.63 3.427l5.453 2.891 5.452-2.89a9.337 9.337 0 0 0 3.63-3.428 9.266 9.266 0 0 0 1.335-4.798V2.07H2.083Z"/></g><defs><clipPath id="ka"><path fill="#fff" d="M0 0h25v29H0z"/></clipPath></defs></svg><svg fill="none" viewBox="0 0 29 29" id="icon-service-6" xmlns="http://www.w3.org/2000/svg"><path d="M16.62 1.449A5.053 5.053 0 0 1 20.189 0a5.053 5.053 0 0 1 3.552 1.491 5.107 5.107 0 0 1 .044 7.158l-.564.564.179.18a4.176 4.176 0 0 1 1.213 2.945 4.176 4.176 0 0 1-1.213 2.945l-2.984 2.999a1.033 1.033 0 0 1-1.453-.013 1.044 1.044 0 0 1-.012-1.46l2.984-2.999a2.088 2.088 0 0 0 0-2.945l-.179-.179-11.699 11.762c-.133.133-.3.227-.483.272l-8.288 2.083a1.031 1.031 0 0 1-1.01-.303 1.043 1.043 0 0 1-.223-1.036l2.59-7.81c.05-.153.136-.292.249-.407L16.62 1.45Zm5.698 1.472a2.987 2.987 0 0 0-4.231 0L4.53 16.545l-1.917 5.778 6.18-1.552L22.317 7.177a3.017 3.017 0 0 0 0-4.256ZM8.219 29c-2.559 0-4.575-1.179-5.916-2.306l2.66-.666c.99.573 2.112.88 3.254.89.841 0 1.708-.342 2.632-.953.926-.61 1.82-1.43 2.723-2.28l.234-.223c.797-.752 1.624-1.535 2.416-2.075.845-.579 1.968-1.104 3.143-.647.78.3 1.285.854 1.64 1.533.333.637.563 1.433.787 2.301.103.396.275.779.476 1.037.065.091.145.17.236.234.052.03.075.03.081.03.253 0 .686-.17 1.306-.595.383-.262.713-.525 1.04-.79.203-.162.408-.326.626-.489A9.72 9.72 0 0 1 27 23.09c.188-.096.38-.182.576-.258l.041-.017.015-.004.006-.002h.002l.332.985-.33-.987a1.031 1.031 0 0 1 1.302.656 1.046 1.046 0 0 1-.637 1.316l-.008.004a4.43 4.43 0 0 0-.362.167 7.35 7.35 0 0 0-1.14.72c-.122.09-.28.217-.462.363-.375.298-.848.675-1.28.97-.643.442-1.536.959-2.47.959-.904 0-1.557-.552-1.96-1.077a5.084 5.084 0 0 1-.84-1.787c-.228-.881-.406-1.458-.614-1.854-.186-.35-.352-.483-.55-.562-.17-.063-.508-.069-1.234.429-.648.441-1.357 1.11-2.192 1.9l-.207.193c-.893.844-1.907 1.78-3.003 2.504C10.888 28.43 9.624 29 8.22 29Z" fill="#444"/></svg><svg fill="none" viewBox="0 0 22 38" id="left" xmlns="http://www.w3.org/2000/svg"><path fill-rule="evenodd" clip-rule="evenodd" d="M.079 18.598c.041-.15.116-.344.167-.43.05-.085 4.375-4.148 9.612-9.029 7.909-7.371 9.57-8.896 9.808-9.006.23-.106.367-.133.681-.133.939 0 1.65.677 1.644 1.564-.005.698.687.005-9.143 9.161-4.867 4.534-8.85 8.26-8.85 8.279 0 .02 3.993 3.752 8.872 8.295 8.057 7.502 8.882 8.286 8.993 8.535.142.317.169.824.06 1.131-.122.346-.44.678-.828.865-.306.147-.407.17-.747.17-.314 0-.452-.027-.682-.133-.239-.11-1.893-1.628-9.808-9.006C4.62 23.981.296 19.918.246 19.833c-.1-.173-.251-.696-.246-.856.002-.058.037-.228.079-.379Z" fill="#8B8B8B"/></svg><svg fill="none" viewBox="0 0 15 11" id="mail" xmlns="http://www.w3.org/2000/svg"><g clip-path="url(#oa)" stroke="#444"><path d="M.738 9.304V1.7a.6.6 0 0 1 .6-.6h11.868a.6.6 0 0 1 .6.6v7.603a.6.6 0 0 1-.6.6H1.338a.6.6 0 0 1-.6-.6Z"/><path d="m.9 1.1 6.104 4.172a.6.6 0 0 0 .674.003l5.99-4.037"/></g><defs><clipPath id="oa"><path fill="#fff" transform="translate(0 .5)" d="M0 0h15v10H0z"/></clipPath></defs></svg><svg fill="none" viewBox="0 0 13 13" id="phone" xmlns="http://www.w3.org/2000/svg"><path d="m.372 1.35.021-.013L3.108 0l2.93 3.907L4.69 5.704A2.775 2.775 0 0 0 7.296 8.31l1.797-1.348L13 9.892l-1.326 2.692-.011.023-.014.021a.787.787 0 0 1-.67.372h-.701A10.276 10.276 0 0 1 0 2.722v-.7a.786.786 0 0 1 .372-.671Zm.631 1.372c0 5.114 4.16 9.275 9.275 9.275h.567l.887-1.802-2.639-1.98-1.47 1.103h-.166a3.779 3.779 0 0 1-3.775-3.775v-.167l1.102-1.47-1.98-2.638-1.8.887v.567Z" fill="#444"/></svg><svg fill="none" viewBox="0 0 22 38" id="right" xmlns="http://www.w3.org/2000/svg"><path fill-rule="evenodd" clip-rule="evenodd" d="M21.921 18.598a2.235 2.235 0 0 0-.166-.43c-.05-.085-4.376-4.148-9.613-9.029C4.233 1.768 2.572.243 2.334.133 2.104.027 1.967 0 1.652 0 .714 0 .002.677.01 1.564c.005.698-.687.005 9.143 9.161 4.867 4.534 8.85 8.26 8.85 8.279 0 .02-3.993 3.752-8.872 8.295C1.073 34.801.248 35.585.137 35.834c-.142.317-.169.824-.06 1.131.122.346.44.678.828.865.306.147.407.17.747.17.314 0 .452-.027.682-.133.239-.11 1.893-1.628 9.808-9.006 5.237-4.88 9.562-8.943 9.612-9.028.1-.173.251-.696.246-.856a2.435 2.435 0 0 0-.079-.379Z" fill="#8B8B8B"/></svg><svg fill="none" viewBox="0 0 19 18" id="star" xmlns="http://www.w3.org/2000/svg"><path d="M9.405.293a.1.1 0 0 1 .19 0l2.015 6.202a.1.1 0 0 0 .096.07h6.521a.1.1 0 0 1 .059.18L13.01 10.58a.1.1 0 0 0-.037.111l2.016 6.203a.1.1 0 0 1-.154.112L9.559 13.17a.1.1 0 0 0-.118 0l-5.276 3.834a.1.1 0 0 1-.154-.112l2.015-6.203a.1.1 0 0 0-.036-.111L.714 6.745a.1.1 0 0 1 .059-.18h6.521a.1.1 0 0 0 .096-.07L9.405.293Z" fill="currentColor"/></svg><svg viewBox="0 0 329.942 329.942" style="enable-background:new 0 0 329.942 329.942" xml:space="preserve" id="star-modal" xmlns="http://www.w3.org/2000/svg"><path d="M329.208 126.666a14.999 14.999 0 0 0-12.109-10.209l-95.822-13.922-42.854-86.837a15.001 15.001 0 0 0-26.902 0l-42.851 86.836-95.825 13.922a15 15 0 0 0-8.313 25.586l69.339 67.582-16.375 95.446a15 15 0 0 0 21.764 15.813l85.711-45.059 85.71 45.059a15.191 15.191 0 0 0 7.021 1.723c8.275-.012 14.979-6.723 14.979-15 0-1.152-.13-2.275-.376-3.352l-16.233-94.629 69.339-67.583a14.997 14.997 0 0 0 3.797-15.376z" fill="currentColor"/></svg></svg>